<svg width="180" height="128" viewBox="0 0 180 128" fill="none" xmlns="http://www.w3.org/2000/svg">
<g clip-path="url(#clip0_19_60)">
<path d="M1.77844 68.5607V67.6476L4.68379 67.0259V46.0074L1.77844 45.3857V44.4727H9.04181C11.8993 44.4727 14.1919 44.9953 15.9226 46.0405C17.6532 47.0857 18.5201 48.7406 18.5201 51.0023C18.5201 52.3418 18.1016 53.5252 17.2676 54.5614C16.4337 55.5946 15.271 56.4176 13.7824 57.0243C12.2939 57.634 10.5573 57.9373 8.57253 57.9373H6.86579V67.0229L10.1328 67.6446V68.5577H1.77844V68.5607ZM6.8628 45.7521V56.6638H9.58581C10.8442 56.6638 11.9651 56.4386 12.9455 55.9881C13.9259 55.5375 14.6941 54.9068 15.25 54.0898C15.806 53.2759 16.084 52.3448 16.084 51.2996C16.084 49.3533 15.4712 47.9417 14.2517 47.0677C13.0292 46.1907 11.3882 45.7551 9.33175 45.7551H6.8628V45.7521Z" fill="#FCAE60"/>
<path d="M22.6599 68.5608V68.0141L24.9465 67.3924V53.5253L22.2952 53.1979V52.6513L26.2168 51.7742H26.5785L26.7609 55.021H26.8326C27.7771 54.0239 28.5274 53.294 29.0833 52.8315C29.6393 52.3689 30.0996 52.0776 30.4643 51.9545C30.8259 51.8343 31.2384 51.7712 31.6987 51.7712C32.1112 51.7712 32.4849 51.8433 32.8256 51.9905C33.0677 52.0866 33.2441 52.1797 33.3517 52.2638C33.4593 52.3509 33.5161 52.4651 33.5161 52.6092C33.5161 52.6573 33.5101 52.7143 33.4981 52.7744C33.4862 52.8345 33.4683 52.9156 33.4443 53.0117L33.0827 53.9608H33.0109L32.3205 53.6334C31.9827 53.4622 31.5344 53.3781 30.9754 53.3781C30.273 53.3781 29.5706 53.5733 28.8681 53.9608C28.1657 54.3512 27.4633 55.03 26.7609 56.0032V67.3894L29.5586 68.0111V68.5578H22.6599V68.5608Z" fill="#FCAE60"/>
<path d="M43.2155 68.9241C41.4968 68.9241 40.0501 68.5606 38.8754 67.8308C37.7008 67.1009 36.816 66.1158 36.2242 64.8753C35.6294 63.6349 35.3334 62.2353 35.3334 60.6795C35.3334 59.0245 35.6772 57.5288 36.3676 56.1922C37.0581 54.8557 37.9668 53.7834 39.0907 52.9815C40.2175 52.1796 41.446 51.7771 42.7761 51.7771C44.6891 51.7771 46.1896 52.4108 47.2806 53.6753C48.3716 54.9398 48.9993 56.6908 49.1697 58.9314L49.0621 59.0396H37.1866C37.1627 59.403 37.1508 59.7934 37.1508 60.2079C37.1508 62.3494 37.7247 64.0824 38.8754 65.407C40.0262 66.7345 41.6403 67.3953 43.7237 67.3953C44.8625 67.3953 45.8967 67.2241 46.8293 66.8847C47.7619 66.5453 48.4942 66.0828 49.0262 65.4971H49.1338V65.9716C48.6018 66.8246 47.8216 67.5274 46.7904 68.0891C45.7622 68.6477 44.5696 68.9271 43.2125 68.9271L43.2155 68.9241ZM42.3427 52.576C41.1561 52.576 40.092 53.0686 39.1475 54.0538C38.2029 55.0389 37.5872 56.4325 37.2942 58.2316H47.173C46.9309 56.4565 46.4347 55.0689 45.6845 54.0718C44.9342 53.0746 43.8193 52.576 42.3427 52.576Z" fill="#FCAE60"/>
<path d="M53.3095 68.5607V68.0141L55.5961 67.3923V53.381H52.4008V52.1406H55.5961V50.6809C55.5961 49.7318 55.7545 48.7166 56.0684 47.6323C56.3822 46.5511 56.8366 45.5149 57.4314 44.5297C58.0232 43.5446 58.7436 42.7427 59.5924 42.1209C60.4383 41.4992 61.4068 41.1898 62.4978 41.1898C62.7877 41.1898 63.0119 41.2019 63.1703 41.2259C63.3287 41.2499 63.4543 41.286 63.5529 41.334C63.7711 41.4061 63.9086 41.4932 63.9714 41.5893C64.0312 41.6854 64.0611 41.7966 64.0611 41.9167C64.0611 42.0128 64.0252 42.16 63.9505 42.3552L63.5141 43.3764H63.4423L62.8625 43.1211C62.6443 43.025 62.4021 42.9379 62.1361 42.8658C61.8701 42.7937 61.5682 42.7577 61.2275 42.7577C59.993 42.7577 59.0484 43.2683 58.3938 44.2895C57.7392 45.3106 57.4134 46.9536 57.4134 49.2152V52.1346H67.5822V50.6749C67.5822 49.7018 67.7466 48.6686 68.0724 47.5723C68.3982 46.479 68.8824 45.4428 69.525 44.4697C70.1647 43.4965 70.9717 42.7066 71.9402 42.0969C72.9086 41.4902 74.0325 41.1838 75.3178 41.1838C75.6316 41.1838 75.9096 41.2319 76.1517 41.331C76.5373 41.5022 76.7316 41.6974 76.7316 41.9137C76.7316 41.9617 76.7256 42.0308 76.7137 42.1149C76.7017 42.199 76.6838 42.2801 76.6599 42.3522L76.2235 43.3734H76.1517L75.3895 43.1181C74.6393 42.8748 73.9129 42.7517 73.2105 42.7517C71.976 42.7517 71.0315 43.2623 70.3769 44.2834C69.7223 45.3046 69.3965 46.9475 69.3965 49.2092V52.1286H74.1909V53.369H69.3965V67.3803L72.1942 68.0021V68.5487H65.2955V68.0021L67.5822 67.3803V53.369H57.4134V67.3803L60.2112 68.0021V68.5487H53.3125L53.3095 68.5607Z" fill="#FCAE60"/>
<path d="M84.6496 68.9241C82.9309 68.9241 81.4842 68.5606 80.3095 67.8308C79.1348 67.1009 78.25 66.1158 77.6582 64.8753C77.0634 63.6349 76.7675 62.2353 76.7675 60.6795C76.7675 59.0245 77.1112 57.5288 77.8017 56.1922C78.4921 54.8557 79.4008 53.7834 80.5247 52.9815C81.6515 52.1796 82.8801 51.7771 84.2102 51.7771C86.1232 51.7771 87.6236 52.4108 88.7146 53.6753C89.8056 54.9398 90.4333 56.6908 90.6037 58.9314L90.4961 59.0396H78.6207C78.5968 59.403 78.5848 59.7934 78.5848 60.2079C78.5848 62.3494 79.1587 64.0824 80.3095 65.407C81.4603 66.7345 83.0743 67.3953 85.1577 67.3953C86.2965 67.3953 87.3307 67.2241 88.2633 66.8847C89.1959 66.5453 89.9282 66.0828 90.4603 65.4971H90.5679V65.9716C90.0358 66.8246 89.2557 67.5274 88.2245 68.0891C87.1962 68.6477 86.0036 68.9271 84.6466 68.9271L84.6496 68.9241ZM83.7798 52.576C82.5931 52.576 81.529 53.0686 80.5845 54.0538C79.6399 55.0389 79.0242 56.4325 78.7313 58.2316H88.61C88.3679 56.4565 87.8717 55.0689 87.1215 54.0718C86.3712 53.0746 85.2563 52.576 83.7798 52.576Z" fill="#FCAE60"/>
<path d="M94.6748 68.5608V68.0141L96.9614 67.3924V53.5253L94.3102 53.1979V52.6513L98.2318 51.7742H98.5934L98.7758 55.021H98.8475C99.7921 54.0239 100.542 53.294 101.098 52.8315C101.654 52.3689 102.115 52.0776 102.479 51.9545C102.841 51.8343 103.253 51.7712 103.714 51.7712C104.126 51.7712 104.5 51.8433 104.841 51.9905C105.083 52.0866 105.259 52.1797 105.367 52.2638C105.474 52.3509 105.531 52.4651 105.531 52.6092C105.531 52.6573 105.525 52.7143 105.513 52.7744C105.501 52.8345 105.483 52.9156 105.459 53.0117L105.098 53.9608H105.026L104.335 53.6334C103.998 53.4622 103.549 53.3781 102.99 53.3781C102.288 53.3781 101.585 53.5733 100.883 53.9608C100.181 54.3512 99.4782 55.03 98.7758 56.0032V67.3894L101.574 68.0111V68.5578H94.6748V68.5608Z" fill="#FCAE60"/>
<path d="M115.227 68.9241C113.509 68.9241 112.062 68.5606 110.887 67.8308C109.713 67.1009 108.828 66.1158 108.236 64.8753C107.641 63.6349 107.345 62.2353 107.345 60.6795C107.345 59.0245 107.689 57.5288 108.38 56.1922C109.07 54.8557 109.979 53.7834 111.103 52.9815C112.229 52.1796 113.458 51.7771 114.788 51.7771C116.701 51.7771 118.202 52.4108 119.293 53.6753C120.384 54.9398 121.011 56.6908 121.182 58.9314L121.074 59.0396H109.199C109.175 59.403 109.163 59.7934 109.163 60.2079C109.163 62.3494 109.737 64.0824 110.887 65.407C112.038 66.7345 113.652 67.3953 115.736 67.3953C116.874 67.3953 117.909 67.2241 118.841 66.8847C119.774 66.5453 120.506 66.0828 121.038 65.4971H121.146V65.9716C120.614 66.8246 119.834 67.5274 118.802 68.0891C117.774 68.6477 116.581 68.9271 115.224 68.9271L115.227 68.9241ZM114.358 52.576C113.171 52.576 112.107 53.0686 111.162 54.0538C110.218 55.0389 109.602 56.4325 109.309 58.2316H119.188C118.946 56.4565 118.45 55.0689 117.699 54.0718C116.949 53.0746 115.834 52.576 114.358 52.576Z" fill="#FCAE60"/>
<path d="M125.106 68.5607V68.0141L127.393 67.3923V53.5252L124.742 53.1978V52.6512L128.663 51.7742H129.028L129.174 54.4022H129.282C130.179 53.4772 131.025 52.8104 131.823 52.3959C132.621 51.9814 133.517 51.7742 134.51 51.7742C136.034 51.7742 137.287 52.2007 138.27 53.0507C139.25 53.9036 139.741 55.1441 139.741 56.772V67.3923L142.027 68.0141V68.5607H135.344V68.0141L137.923 67.3923V57.7571C137.923 56.2734 137.529 55.1471 136.743 54.3812C135.956 53.6153 134.919 53.2309 133.637 53.2309C132.911 53.2309 132.125 53.4081 131.276 53.7595C130.427 54.1139 129.739 54.6185 129.207 55.2732V67.3893L131.787 68.0111V68.5577H125.103L125.106 68.5607Z" fill="#FCAE60"/>
<path d="M152.997 68.9241C151.302 68.9241 149.879 68.5607 148.729 67.8309C147.578 67.101 146.708 66.1159 146.113 64.8754C145.518 63.635 145.222 62.2353 145.222 60.6795C145.222 58.9766 145.566 57.4508 146.257 56.0992C146.947 54.7476 147.904 53.6904 149.126 52.9245C150.349 52.1586 151.736 51.7742 153.284 51.7742C154.252 51.7742 155.113 51.9093 155.863 52.1766C156.614 52.4439 157.22 52.7353 157.678 53.0537C158.452 53.5883 158.841 54.0508 158.841 54.4413C158.841 54.6125 158.757 54.7687 158.586 54.9158L157.606 55.7538H157.46L156.987 55.096C156.455 54.3662 155.878 53.7655 155.263 53.2909C154.644 52.8164 153.852 52.5791 152.883 52.5791C151.189 52.5791 149.79 53.2189 148.69 54.4953C147.587 55.7718 147.037 57.676 147.037 60.205C147.037 62.3465 147.599 64.0795 148.726 65.404C149.852 66.7316 151.443 67.3923 153.502 67.3923C154.614 67.3923 155.645 67.2211 156.59 66.8818C157.534 66.5424 158.273 66.0798 158.805 65.4941H158.912V65.9687C158.356 66.8217 157.567 67.5245 156.551 68.0862C155.535 68.6448 154.348 68.9241 152.991 68.9241H152.997Z" fill="#FCAE60"/>
<path d="M170.247 68.9241C168.528 68.9241 167.081 68.5606 165.907 67.8308C164.732 67.1009 163.847 66.1158 163.255 64.8753C162.661 63.6349 162.365 62.2353 162.365 60.6795C162.365 59.0245 162.708 57.5288 163.399 56.1922C164.089 54.8557 164.998 53.7834 166.122 52.9815C167.249 52.1796 168.477 51.7771 169.807 51.7771C171.72 51.7771 173.221 52.4108 174.312 53.6753C175.403 54.9398 176.031 56.6908 176.201 58.9314L176.093 59.0396H164.218C164.194 59.403 164.182 59.7934 164.182 60.2079C164.182 62.3494 164.756 64.0824 165.907 65.407C167.057 66.7345 168.672 67.3953 170.755 67.3953C171.894 67.3953 172.928 67.2241 173.86 66.8847C174.793 66.5453 175.525 66.0828 176.057 65.4971H176.165V65.9716C175.633 66.8246 174.853 67.5274 173.822 68.0891C172.793 68.6477 171.601 68.9271 170.244 68.9271L170.247 68.9241ZM169.374 52.576C168.187 52.576 167.123 53.0686 166.179 54.0538C165.234 55.0389 164.618 56.4325 164.325 58.2316H174.204C173.962 56.4565 173.466 55.0689 172.716 54.0718C171.965 53.0746 170.851 52.576 169.374 52.576Z" fill="#FCAE60"/>
<path d="M7.09596 98.3282C6.21121 98.3282 5.49384 98.0459 4.94086 97.4812C4.39088 96.9166 4.11589 96.1267 4.11589 95.1055V84.4611H1.26733V84.1698L4.31317 83.3558L5.38324 79.7756H5.73894V83.3558H10.0133V84.4611H5.73894V95.0394C5.73894 95.7122 5.94518 96.2168 6.35468 96.5532C6.76418 96.8896 7.30519 97.0578 7.97474 97.0578C8.45 97.0578 8.88042 97.0037 9.26899 96.8956C9.65757 96.7874 10.0252 96.6343 10.369 96.439L10.4018 96.4721V96.6012C10.2285 96.9707 9.86082 97.3491 9.30187 97.7396C8.73993 98.13 8.00762 98.3252 7.09895 98.3252L7.09596 98.3282Z" fill="#FCAE60"/>
<path d="M13.3819 98.0007V97.5112L15.4234 96.9585V84.5901L13.0591 84.2958V83.8092L16.5563 83.0283H16.8791L17.0405 85.9237H17.1062C17.9492 85.0347 18.6187 84.3829 19.1149 83.9714C19.6111 83.5599 20.0235 83.2986 20.3464 83.1905C20.6692 83.0824 21.0368 83.0283 21.4463 83.0283C21.814 83.0283 22.1488 83.0944 22.4506 83.2235C22.6659 83.3106 22.8243 83.3917 22.9199 83.4668C23.0186 83.5419 23.0664 83.647 23.0664 83.7762C23.0664 83.8212 23.0604 83.8693 23.0514 83.9234C23.0395 83.9774 23.0245 84.0495 23.0036 84.1366L22.6808 84.9836H22.615L21.9993 84.6893C21.6974 84.5391 21.2969 84.461 20.8007 84.461C20.173 84.461 19.5483 84.6352 18.9206 84.9806C18.2929 85.329 17.6682 85.9357 17.0405 86.8037V96.9585L19.5333 97.5112V98.0007H13.3789H13.3819Z" fill="#FCAE60"/>
<path d="M28.1179 98.3283C27.1255 98.3283 26.2916 98.0309 25.625 97.4333C24.9585 96.8356 24.6207 96.0066 24.6207 94.9434C24.6207 93.8801 24.9944 93.0331 25.7386 92.3393C26.4829 91.6455 27.7204 91.0809 29.448 90.6453L32.6224 89.8314V87.1313C32.6224 86.1972 32.2876 85.4433 31.6181 84.8696C30.9485 84.296 30.1803 84.0076 29.3195 84.0076C28.3899 84.0076 27.7383 84.1968 27.3587 84.5783C26.9791 84.9597 26.7908 85.4733 26.7908 86.1251V87.4586L26.6294 87.6208H25.7865C25.4397 87.6208 25.2126 87.5668 25.105 87.4586C24.9973 87.3505 24.9435 87.1433 24.9435 86.8399C24.9435 86.4284 25.084 86.0049 25.365 85.5694C25.646 85.1369 26.0555 84.7465 26.5965 84.3981C27.1793 84.0287 27.7682 83.7103 28.363 83.437C28.9578 83.1666 29.5228 83.0315 30.0638 83.0315C31.358 83.0315 32.3803 83.3198 33.1245 83.8935C33.8688 84.4702 34.2424 85.3652 34.2424 86.5786V96.7004C34.4158 96.8536 34.6161 96.9707 34.8403 97.0578C35.0674 97.1449 35.3305 97.187 35.6353 97.187H37.3182L37.351 97.22V97.2861C37.1986 97.5023 36.9505 97.7306 36.6068 97.9709C36.26 98.2082 35.7967 98.3283 35.2139 98.3283C34.4577 98.3283 33.8748 98.1331 33.4653 97.7426C33.0558 97.3522 32.8047 96.8956 32.721 96.376H32.6553C32.0933 96.9407 31.4178 97.4062 30.6317 97.7757C29.8426 98.1451 29.0056 98.3283 28.1209 98.3283H28.1179ZM26.2408 94.3577C26.2408 95.2467 26.4889 95.9135 26.9851 96.358C27.4812 96.8025 28.1837 97.0248 29.0893 97.0248C29.6274 97.0248 30.2132 96.9437 30.8379 96.7815C31.4626 96.6193 32.0575 96.364 32.6194 96.0156V90.5162C30.826 90.8856 29.4719 91.2551 28.5543 91.6215C27.6367 91.9909 27.0209 92.3934 26.7071 92.8259C26.3932 93.2614 26.2378 93.769 26.2378 94.3547L26.2408 94.3577Z" fill="#FCAE60"/>
<path d="M44.3155 98.166L39.0369 84.464L36.9954 83.8453V83.3557H43.2156V83.8453L40.7227 84.3979V84.497L44.9014 95.8893H45L49.1129 84.5301V84.431L46.4886 83.8453V83.3557H52.2215V83.8453L50.1471 84.464L44.6413 98.166H44.3185H44.3155Z" fill="#FCAE60"/>
<path d="M60.0886 98.3281C58.5553 98.3281 57.264 98.0038 56.2178 97.352C55.1717 96.7002 54.3826 95.8232 53.8535 94.7149C53.3244 93.6096 53.0584 92.3602 53.0584 90.9726C53.0584 89.4979 53.3663 88.1613 53.982 86.9689C54.5978 85.7765 55.4078 84.8214 56.4121 84.1036C57.4164 83.3887 58.5104 83.0283 59.7001 83.0283C61.4068 83.0283 62.7459 83.593 63.7173 84.7193C64.6888 85.8486 65.2507 87.4104 65.4002 89.4047L65.3015 89.5039H54.7084C54.6874 89.8282 54.6755 90.1766 54.6755 90.5461C54.6755 92.4563 55.1866 94.0031 56.2148 95.1835C57.2401 96.3668 58.6808 96.9585 60.54 96.9585C61.5533 96.9585 62.4769 96.8084 63.3108 96.502C64.1418 96.1986 64.7964 95.7872 65.2716 95.2646H65.3703V95.6881C64.895 96.4479 64.1986 97.0757 63.2809 97.5773C62.3633 98.0758 61.2992 98.3251 60.0916 98.3251L60.0886 98.3281ZM59.3115 83.7462C58.2534 83.7462 57.3028 84.1847 56.4599 85.0647C55.617 85.9447 55.067 87.1852 54.807 88.792H63.6187C63.4035 87.2092 62.9611 85.9717 62.2916 85.0827C61.622 84.1937 60.6296 83.7492 59.3115 83.7492V83.7462Z" fill="#FCAE60"/>
<path d="M68.446 98.0009V97.5113L70.4875 96.9587V75.1503L68.1232 74.5315V74.042L71.7847 73.5854H72.1076V96.9557L74.4061 97.5083V97.9979H68.446V98.0009Z" fill="#FCAE60"/>
<path d="M89.8236 98.3283C89.0674 98.3283 88.3919 98.2472 87.8001 98.085C87.2052 97.9228 86.5955 97.6885 85.9708 97.3852V94.0003H86.3593L86.8137 95.466C87.008 96.1177 87.3637 96.6313 87.8837 97.0128C88.4009 97.3942 89.1362 97.5834 90.0867 97.5834C91.1239 97.5834 91.9279 97.3281 92.4988 96.8175C93.0697 96.3069 93.3567 95.5771 93.3567 94.619C93.3567 93.772 93.1295 93.1052 92.6752 92.6186C92.2208 92.1291 91.3809 91.6365 90.1494 91.1379C88.8552 90.6183 87.8987 90.0537 87.283 89.444C86.6672 88.8372 86.3593 87.9692 86.3593 86.8399C86.3593 86.1461 86.5477 85.5124 86.9273 84.9357C87.3039 84.362 87.806 83.8995 88.4337 83.5511C89.0584 83.2057 89.728 83.0315 90.4424 83.0315C91.2404 83.0315 91.9548 83.1246 92.5795 83.3078C93.2042 83.491 93.7453 83.7043 94.1996 83.9416V87.2604H93.811L93.3896 85.8608C93.1744 85.1009 92.7678 84.5603 92.176 84.2329C91.5812 83.9085 90.9834 83.7463 90.3796 83.7463C89.5367 83.7463 88.8941 83.9956 88.4517 84.4942C88.0093 84.9928 87.7881 85.6445 87.7881 86.4465C87.7881 87.2484 88.0242 87.8791 88.4995 88.3357C88.9747 88.7922 89.7399 89.2367 90.7981 89.6692C91.7486 90.0597 92.5197 90.4411 93.1146 90.8075C93.7094 91.177 94.1458 91.6275 94.4268 92.1591C94.7077 92.6907 94.8482 93.3695 94.8482 94.1925C94.8482 94.9313 94.642 95.6131 94.2325 96.2439C93.823 96.8746 93.2401 97.3792 92.4839 97.7576C91.7277 98.1361 90.8429 98.3283 89.8266 98.3283H89.8236Z" fill="#FCAE60"/>
<path d="M105.695 98.3281C104.162 98.3281 102.871 98.0038 101.825 97.352C100.778 96.7002 99.9894 95.8232 99.4603 94.7149C98.9312 93.6096 98.6652 92.3602 98.6652 90.9726C98.6652 89.4979 98.9731 88.1613 99.5888 86.9689C100.205 85.7765 101.015 84.8214 102.019 84.1036C103.023 83.3887 104.117 83.0283 105.307 83.0283C107.014 83.0283 108.353 83.593 109.324 84.7193C110.296 85.8486 110.858 87.4104 111.007 89.4047L110.908 89.5039H100.315C100.294 89.8282 100.282 90.1766 100.282 90.5461C100.282 92.4563 100.793 94.0031 101.822 95.1835C102.847 96.3668 104.288 96.9585 106.147 96.9585C107.16 96.9585 108.084 96.8084 108.918 96.502C109.749 96.1986 110.403 95.7872 110.878 95.2646H110.977V95.6881C110.502 96.4479 109.805 97.0757 108.888 97.5773C107.97 98.0758 106.906 98.3251 105.698 98.3251L105.695 98.3281ZM104.918 83.7462C103.86 83.7462 102.91 84.1847 102.067 85.0647C101.224 85.9447 100.674 87.1852 100.414 88.792H109.226C109.01 87.2092 108.568 85.9717 107.898 85.0827C107.229 84.1937 106.236 83.7492 104.918 83.7492V83.7462Z" fill="#FCAE60"/>
<path d="M114.636 98.0007V97.5112L116.677 96.9585V84.5901L114.313 84.2958V83.8092L117.81 83.0283H118.133L118.294 85.9237H118.36C119.203 85.0347 119.872 84.3829 120.369 83.9714C120.865 83.5599 121.277 83.2986 121.6 83.1905C121.923 83.0824 122.291 83.0283 122.7 83.0283C123.068 83.0283 123.403 83.0944 123.704 83.2235C123.92 83.3106 124.078 83.3917 124.174 83.4668C124.272 83.5419 124.32 83.647 124.32 83.7762C124.32 83.8212 124.314 83.8693 124.305 83.9234C124.293 83.9774 124.278 84.0495 124.257 84.1366L123.935 84.9836H123.869L123.253 84.6893C122.951 84.5391 122.551 84.461 122.054 84.461C121.427 84.461 120.802 84.6352 120.174 84.9806C119.547 85.329 118.922 85.9357 118.294 86.8037V96.9585L120.787 97.5112V98.0007H114.633H114.636Z" fill="#FCAE60"/>
<path d="M132.223 98.166L126.945 84.464L124.903 83.8453V83.3557H131.123V83.8453L128.63 84.3979V84.497L132.809 95.8893H132.908L137.021 84.5301V84.431L134.396 83.8453V83.3557H140.129V83.8453L138.055 84.464L132.549 98.166H132.226H132.223Z" fill="#FCAE60"/>
<path d="M141.423 98.0009V97.5113L143.465 96.9587V84.5903L141.101 83.9716V83.482L144.762 83.0255H145.085V96.9557L147.384 97.5083V97.9979H141.423V98.0009ZM143.821 77.8865C143.474 77.8865 143.184 77.7664 142.945 77.5291C142.709 77.2918 142.589 76.9975 142.589 76.6491C142.589 76.3007 142.709 76.0093 142.945 75.769C143.181 75.5318 143.474 75.4116 143.821 75.4116C144.167 75.4116 144.457 75.5318 144.696 75.769C144.933 76.0093 145.052 76.3007 145.052 76.6491C145.052 76.9975 144.933 77.2888 144.696 77.5291C144.46 77.7694 144.167 77.8865 143.821 77.8865Z" fill="#FCAE60"/>
<path d="M157.684 98.3283C156.171 98.3283 154.904 98.0039 153.879 97.3522C152.854 96.7004 152.076 95.8234 151.547 94.7151C151.018 93.6098 150.752 92.3604 150.752 90.9727C150.752 89.453 151.06 88.0924 151.676 86.888C152.292 85.6836 153.143 84.7405 154.234 84.0557C155.325 83.3709 156.56 83.0315 157.944 83.0315C158.808 83.0315 159.573 83.1516 160.242 83.3889C160.912 83.6292 161.45 83.8875 161.862 84.1698C162.553 84.6474 162.9 85.0588 162.9 85.4073C162.9 85.5604 162.825 85.7016 162.673 85.8307L161.797 86.5786H161.668L161.247 85.9929C160.771 85.3412 160.26 84.8036 159.707 84.3831C159.157 83.9596 158.449 83.7493 157.585 83.7493C156.073 83.7493 154.826 84.32 153.843 85.4583C152.859 86.5966 152.369 88.2966 152.369 90.5522C152.369 92.4625 152.871 94.0093 153.876 95.1896C154.88 96.373 156.3 96.9647 158.135 96.9647C159.128 96.9647 160.045 96.8145 160.888 96.5082C161.731 96.2048 162.389 95.7933 162.864 95.2707H162.959V95.6942C162.463 96.4541 161.761 97.0818 160.855 97.5834C159.95 98.082 158.891 98.3313 157.681 98.3313L157.684 98.3283Z" fill="#FCAE60"/>
<path d="M173.068 98.3281C171.535 98.3281 170.244 98.0038 169.198 97.352C168.151 96.7002 167.362 95.8232 166.833 94.7149C166.304 93.6096 166.038 92.3602 166.038 90.9726C166.038 89.4979 166.346 88.1613 166.962 86.9689C167.578 85.7765 168.388 84.8214 169.392 84.1036C170.396 83.3887 171.49 83.0283 172.68 83.0283C174.387 83.0283 175.726 83.593 176.697 84.7193C177.669 85.8486 178.23 87.4104 178.38 89.4047L178.281 89.5039H167.688C167.667 89.8282 167.655 90.1766 167.655 90.5461C167.655 92.4563 168.166 94.0031 169.195 95.1835C170.22 96.3668 171.661 96.9585 173.52 96.9585C174.533 96.9585 175.457 96.8084 176.291 96.502C177.122 96.1986 177.776 95.7872 178.251 95.2646H178.35V95.6881C177.875 96.4479 177.178 97.0757 176.261 97.5773C175.343 98.0758 174.279 98.3251 173.071 98.3251L173.068 98.3281ZM172.291 83.7462C171.233 83.7462 170.283 84.1847 169.44 85.0647C168.597 85.9447 168.047 87.1852 167.787 88.792H176.598C176.383 87.2092 175.941 85.9717 175.271 85.0827C174.602 84.1937 173.609 83.7492 172.291 83.7492V83.7462Z" fill="#FCAE60"/>
<path d="M43.8372 119.822C43.09 119.867 42.1992 119.93 41.162 120.005L41.3683 119.704C41.4131 119.719 41.5118 119.728 41.6642 119.728C41.9243 119.728 42.2381 119.671 42.6117 119.557C42.9854 119.443 43.2544 119.239 43.4218 118.948C43.4995 118.809 43.5921 118.584 43.7087 118.269C43.8223 117.956 43.9448 117.614 44.0734 117.248C44.2019 116.881 44.3215 116.533 44.4291 116.202C44.5367 115.872 44.6204 115.608 44.6801 115.409L45.4573 112.998C45.6695 112.295 45.7771 111.835 45.7771 111.619C45.7771 111.496 45.7592 111.418 45.7203 111.379C45.6815 111.34 45.6337 111.307 45.5709 111.277C45.4932 111.232 45.3587 111.271 45.1584 111.391C44.9611 111.514 44.7549 111.658 44.5397 111.826C44.3872 111.934 44.2437 112.048 44.1063 112.172C43.9688 112.295 43.8612 112.37 43.7864 112.4C43.8313 112.232 43.8671 112.112 43.8881 112.042C43.909 111.973 43.9389 111.886 43.9688 111.778C44.181 111.64 44.438 111.487 44.734 111.319C45.0299 111.15 45.3616 110.952 45.7293 110.721C45.9116 110.598 46.1777 110.427 46.5304 110.204C46.8801 109.982 47.185 109.796 47.445 109.643C47.5197 109.583 47.5885 109.55 47.6513 109.55C47.6961 109.55 47.72 109.58 47.72 109.643C47.72 109.721 47.6961 109.805 47.6513 109.895C47.3613 110.463 47.0953 111.09 46.8502 111.778C46.6051 112.466 46.3331 113.31 46.0282 114.304L45.6845 115.43C45.5619 115.812 45.4304 116.238 45.2839 116.704C45.1405 117.172 45.0119 117.608 44.9073 118.013C44.7997 118.419 44.731 118.728 44.7011 118.944C44.6712 119.191 44.7638 119.371 44.9761 119.485C45.1883 119.599 45.4304 119.668 45.6964 119.692C45.9624 119.716 46.1418 119.728 46.2344 119.728L45.9834 120.005C45.9086 119.975 45.7413 119.948 45.4812 119.924C45.2212 119.9 44.9402 119.879 44.6353 119.855C44.3304 119.831 44.0644 119.819 43.8342 119.819L43.8372 119.822Z" fill="#FF9D3B"/>
<path d="M50.0335 120.143C49.2863 120.143 48.7602 119.906 48.4553 119.431C48.1504 118.957 47.998 118.368 47.998 117.662C47.998 116.956 48.1146 116.241 48.3537 115.469C48.5898 114.698 48.8977 113.968 49.2803 113.286C49.6599 112.604 50.0634 112.063 50.4908 111.667C50.7509 111.439 51.0289 111.204 51.3248 110.967C51.6237 110.73 51.8927 110.505 52.1378 110.288C52.35 110.12 52.625 109.997 52.9598 109.922C53.2946 109.847 53.5845 109.808 53.8296 109.808C54.5141 109.808 55.0073 110.057 55.3032 110.556C55.6021 111.054 55.7486 111.661 55.7486 112.382C55.7486 113.04 55.6469 113.745 55.4407 114.496C55.2344 115.247 54.9535 115.956 54.5948 116.623C54.2361 117.29 53.8356 117.83 53.3962 118.242C53.1511 118.47 52.9 118.674 52.64 118.851C52.3799 119.029 52.1229 119.245 51.8628 119.506C51.6177 119.734 51.3128 119.9 50.9482 119.999C50.5835 120.098 50.2786 120.149 50.0335 120.149V120.143ZM50.9691 119.362C51.4862 119.362 51.9854 119.125 52.4666 118.65C52.9478 118.176 53.3753 117.494 53.7579 116.605C54.0179 115.992 54.2271 115.379 54.3856 114.767C54.547 114.154 54.6247 113.586 54.6247 113.067C54.6247 112.547 54.535 112.063 54.3497 111.664C54.1674 111.265 53.8774 110.982 53.4799 110.814C53.2527 110.721 53.0226 110.676 52.7954 110.676C52.2305 110.676 51.7104 110.94 51.2291 111.469C50.7479 111.997 50.3414 112.667 50.0066 113.478C49.7466 114.076 49.5403 114.677 49.3879 115.28C49.2354 115.887 49.1607 116.455 49.1607 116.992C49.1607 117.497 49.2414 117.941 49.3998 118.326C49.5613 118.71 49.8213 118.993 50.189 119.176C50.4191 119.299 50.6762 119.359 50.9661 119.359L50.9691 119.362Z" fill="#FF9D3B"/>
<path d="M55.9339 112.352C55.8442 112.352 55.7695 112.334 55.7067 112.298C55.6439 112.262 55.6141 112.196 55.6141 112.096C55.6141 111.97 55.6469 111.823 55.7127 111.655C55.7785 111.487 55.8532 111.316 55.9339 111.144C56.0146 110.976 56.0804 110.835 56.1342 110.73C56.179 110.649 56.2388 110.523 56.3135 110.348C56.3882 110.174 56.4689 109.991 56.5526 109.799C56.6363 109.607 56.7379 109.378 56.8515 109.108C56.7708 109.198 56.6662 109.321 56.5377 109.483C56.4091 109.646 56.2717 109.811 56.1252 109.985C55.9787 110.159 55.8442 110.321 55.7247 110.475C55.6051 110.628 55.5184 110.739 55.4646 110.811C55.4377 110.847 55.4168 110.865 55.3988 110.865C55.3809 110.865 55.3719 110.844 55.3719 110.799C55.3719 110.727 55.3929 110.661 55.4377 110.598C55.5453 110.463 55.6738 110.3 55.8233 110.108C55.9727 109.916 56.1282 109.721 56.2836 109.525C56.439 109.33 56.5735 109.156 56.6901 109.003C56.6184 109.003 56.5287 109.006 56.4181 109.015C56.3075 109.024 56.2059 109.036 56.1192 109.048C56.0295 109.06 55.9817 109.069 55.9727 109.069C55.9279 109.069 55.9339 109.033 55.9847 108.961C56.0355 108.889 56.1102 108.817 56.1969 108.748C56.2866 108.675 56.3524 108.639 56.3972 108.639C56.4062 108.639 56.4779 108.639 56.6094 108.645C56.7409 108.651 56.8396 108.651 56.9023 108.651C57.0817 108.411 57.255 108.135 57.4284 107.822C57.6018 107.51 57.7721 107.168 57.9425 106.792C58.0143 106.783 58.1368 106.732 58.3102 106.639C58.4835 106.546 58.618 106.45 58.7167 106.351C58.7615 106.306 58.7974 106.285 58.8243 106.285C58.8781 106.285 58.8781 106.321 58.8243 106.393C58.7615 106.465 58.6569 106.615 58.5045 106.84C58.352 107.066 58.1846 107.342 57.9993 107.657C57.814 107.973 57.6347 108.306 57.4643 108.654H58.5433C58.642 108.654 58.6898 108.666 58.6898 108.693C58.6898 108.73 58.624 108.766 58.4895 108.802C58.3371 108.847 58.1816 108.874 58.0173 108.883C57.8529 108.892 57.7004 108.91 57.5629 108.937C57.4254 108.964 57.3238 109.021 57.264 109.111C57.2102 109.174 57.1355 109.306 57.0368 109.513C56.9382 109.718 56.8336 109.952 56.723 110.216C56.6124 110.481 56.5167 110.742 56.436 111.006C56.3553 111.27 56.3075 111.49 56.2896 111.67V111.724C56.2896 111.796 56.3105 111.853 56.3553 111.898C56.4002 111.943 56.445 111.964 56.4899 111.964C56.6034 111.964 56.7529 111.892 56.9352 111.751C57.1175 111.61 57.3059 111.436 57.5031 111.234C57.6974 111.033 57.8678 110.847 58.0083 110.679C58.0711 110.607 58.1249 110.541 58.1757 110.478C58.2235 110.414 58.2534 110.375 58.2623 110.357C58.2803 110.393 58.2892 110.42 58.2892 110.439C58.2892 110.493 58.2743 110.55 58.2414 110.613C58.2085 110.676 58.1757 110.73 58.1428 110.775C57.9724 110.997 57.7692 111.231 57.53 111.478C57.2909 111.724 57.0339 111.931 56.7648 112.099C56.4928 112.271 56.2149 112.355 55.9309 112.355L55.9339 112.352Z" fill="#FF9D3B"/>
<path d="M60.014 112.391C59.8794 112.391 59.7629 112.364 59.6612 112.31C59.5596 112.256 59.5088 112.16 59.5088 112.015C59.5088 111.934 59.5267 111.847 59.5626 111.748C59.6433 111.544 59.7509 111.292 59.8884 110.997C60.0259 110.703 60.1664 110.415 60.3069 110.132C60.4504 109.85 60.561 109.622 60.6417 109.441C60.6955 109.333 60.7224 109.258 60.7224 109.213C60.7224 109.132 60.6775 109.114 60.5878 109.159C60.4982 109.204 60.4025 109.267 60.2949 109.345C60.1873 109.426 60.1096 109.489 60.0558 109.531C59.8256 109.745 59.5835 109.997 59.3295 110.288C59.0754 110.58 58.8452 110.883 58.636 111.198C58.4268 111.517 58.2654 111.829 58.1488 112.142C58.1398 112.196 58.083 112.241 57.9754 112.277C57.8678 112.313 57.7722 112.331 57.6825 112.331C57.539 112.331 57.4882 112.286 57.5211 112.196C57.7244 111.73 57.9366 111.216 58.1548 110.655C58.373 110.093 58.6181 109.516 58.8931 108.928C59.0963 108.48 59.3265 108.021 59.5805 107.549C59.8346 107.075 60.1156 106.624 60.4264 106.189C60.7373 105.756 61.0781 105.375 61.4517 105.044C61.7805 104.759 62.1422 104.525 62.5367 104.341C62.9313 104.158 63.3617 104.068 63.822 104.068C64.0252 104.068 64.2046 104.11 64.354 104.194C64.5035 104.278 64.5902 104.429 64.6081 104.642V104.762C64.6081 104.888 64.5962 105.011 64.5693 105.137C64.5603 105.173 64.5244 105.191 64.4616 105.191C64.4347 105.191 64.4258 105.188 64.4347 105.179C64.4706 104.948 64.4108 104.783 64.2554 104.684C64.1 104.585 63.9027 104.537 63.6636 104.537C63.2272 104.537 62.8296 104.618 62.465 104.777C62.1003 104.936 61.7625 105.152 61.4517 105.42C60.9704 105.84 60.555 106.375 60.1993 107.027C59.8436 107.678 59.5387 108.345 59.2787 109.021C59.1531 109.351 59.0335 109.682 58.911 110.012C58.7914 110.342 58.6779 110.652 58.5702 110.937C58.9708 110.402 59.3534 109.943 59.724 109.559C60.0917 109.174 60.4145 108.904 60.6895 108.742C60.9107 108.615 61.1109 108.555 61.2903 108.555C61.4577 108.555 61.5443 108.627 61.5443 108.769C61.5443 108.895 61.4816 109.054 61.359 109.252C61.2963 109.351 61.2006 109.516 61.0721 109.748C60.9435 109.979 60.809 110.231 60.6715 110.505C60.534 110.778 60.4145 111.03 60.3188 111.261C60.2202 111.493 60.1724 111.664 60.1724 111.772C60.1724 111.916 60.2351 111.985 60.3577 111.985C60.4294 111.985 60.5101 111.964 60.6028 111.919C60.6955 111.874 60.7642 111.835 60.809 111.799C61.0482 111.622 61.2843 111.403 61.5145 111.141C61.7446 110.883 61.9419 110.655 62.1003 110.46C62.1093 110.451 62.1123 110.463 62.1123 110.499C62.1123 110.535 62.1063 110.586 62.0913 110.652C62.0794 110.718 62.0495 110.775 62.0047 110.82C61.906 110.955 61.8074 111.081 61.7058 111.201C61.6041 111.322 61.5025 111.442 61.4068 111.556C61.2395 111.751 61.0362 111.94 60.8001 112.117C60.5639 112.295 60.3009 112.385 60.008 112.385L60.014 112.391Z" fill="#FF9D3B"/>
<path d="M67.6449 120.029C67.4925 120.029 67.361 119.999 67.2564 119.936C67.1488 119.875 67.095 119.758 67.095 119.59C67.095 119.377 67.1488 119.131 67.2564 118.854C67.364 118.578 67.4835 118.308 67.621 118.037C67.7585 117.77 67.8811 117.551 67.9857 117.383C67.4507 117.95 66.8947 118.485 66.3178 118.989C66.0279 119.236 65.7081 119.464 65.3583 119.677C65.0086 119.89 64.635 119.999 64.2374 119.999C64.085 119.999 63.9774 119.948 63.9176 119.848C63.8578 119.749 63.8279 119.629 63.8279 119.491C63.8279 119.416 63.8369 119.362 63.8519 119.329C63.9266 118.731 64.1179 118.112 64.4228 117.467C64.7276 116.824 65.1013 116.217 65.5437 115.653C65.986 115.085 66.4344 114.625 66.8917 114.274C67.4088 113.874 67.9827 113.676 68.6074 113.676H71.2378C71.3125 113.676 71.3514 113.706 71.3514 113.769C71.3514 113.893 71.2826 113.953 71.1451 113.953C70.9927 113.953 70.8402 114.049 70.6878 114.241C70.5354 114.433 70.4218 114.589 70.344 114.712C70.2364 114.881 70.0691 115.163 69.8419 115.562C69.6147 115.962 69.3816 116.394 69.1454 116.86C68.9093 117.329 68.7061 117.761 68.5387 118.157C68.3713 118.557 68.2876 118.845 68.2876 119.031C68.2876 119.245 68.3952 119.353 68.6074 119.353C68.8376 119.353 69.0946 119.245 69.3846 119.031C69.6745 118.818 69.9674 118.554 70.2663 118.239C70.5623 117.926 70.8372 117.611 71.0883 117.295C71.3394 116.983 71.5427 116.734 71.6951 116.548C71.7878 116.641 71.7818 116.767 71.6831 116.926C71.5845 117.088 71.4978 117.214 71.4201 117.304C71.1152 117.704 70.7655 118.112 70.368 118.533C69.9704 118.953 69.54 119.308 69.0767 119.59C68.6104 119.872 68.1352 120.017 67.6479 120.017L67.6449 120.029ZM65.176 119.224C65.3583 119.224 65.6124 119.089 65.9412 118.821C66.27 118.554 66.6227 118.218 67.0053 117.809C67.3849 117.404 67.7436 116.974 68.0813 116.524C68.4161 116.073 68.6941 115.659 68.9153 115.283C69.1365 114.908 69.2471 114.622 69.2471 114.421C69.2471 114.253 69.1963 114.139 69.0976 114.076C68.999 114.016 68.8734 113.983 68.721 113.983C68.4759 113.983 68.2129 114.07 67.9319 114.247C67.6509 114.424 67.4238 114.595 67.2564 114.764C67.074 114.932 66.8558 115.196 66.6048 115.556C66.3537 115.917 66.1056 116.31 65.8605 116.74C65.6154 117.169 65.4121 117.581 65.2447 117.98C65.0774 118.38 64.9937 118.701 64.9937 118.944C64.9937 119.128 65.0535 119.221 65.176 119.221V119.224Z" fill="#FF9D3B"/>
<path d="M71.3932 120.305C71.3334 120.305 71.3334 120.236 71.3932 120.098C71.4709 119.96 71.5427 119.806 71.6114 119.638C71.6802 119.47 71.7519 119.287 71.8296 119.089C71.982 118.722 72.1494 118.308 72.3318 117.848C72.5141 117.389 72.6905 116.941 72.8578 116.506C73.0252 116.07 73.1747 115.695 73.3032 115.379C73.4317 115.067 73.5214 114.863 73.5662 114.77C73.354 114.998 73.097 115.286 72.801 115.632C72.5021 115.977 72.2242 116.31 71.9671 116.632C71.7071 116.953 71.5098 117.205 71.3723 117.389C71.3275 117.449 71.2886 117.482 71.2587 117.482C71.2288 117.482 71.2139 117.443 71.2139 117.368C71.2139 117.244 71.2527 117.13 71.3275 117.022C71.6174 116.656 71.9402 116.241 72.2989 115.782C72.6576 115.322 72.9804 114.899 73.2703 114.508C73.5603 114.118 73.7426 113.862 73.8203 113.739C73.9877 113.709 74.2358 113.664 74.5646 113.601C74.8934 113.541 75.1176 113.457 75.2401 113.349C75.2849 113.304 75.3328 113.28 75.3776 113.28C75.4075 113.28 75.4284 113.307 75.4344 113.361C75.4434 113.415 75.4224 113.472 75.3776 113.532C75.2879 113.64 75.1295 113.889 74.9083 114.28C74.6871 114.67 74.451 115.103 74.1999 115.577C73.9488 116.052 73.7157 116.482 73.5035 116.863C73.6858 116.617 73.8831 116.379 74.0983 116.151C74.3105 115.92 74.5168 115.701 74.717 115.484C74.8994 115.301 75.1504 115.07 75.4703 114.797C75.7901 114.52 76.1249 114.268 76.4776 114.04C76.8273 113.811 77.1322 113.679 77.3922 113.649C77.452 113.634 77.5088 113.625 77.5626 113.625H77.6881C78.0229 113.625 78.1903 113.748 78.1903 113.992C78.1903 114.175 78.0917 114.421 77.8944 114.727C77.7868 114.896 77.6224 115.175 77.4042 115.565C77.183 115.956 76.9618 116.376 76.7406 116.83C76.5194 117.28 76.3281 117.704 76.1697 118.094C76.0083 118.485 75.9306 118.773 75.9306 118.956C75.9306 119.17 76.0382 119.278 76.2504 119.278C76.5104 119.278 76.7944 119.149 77.1083 118.887C77.4191 118.626 77.7599 118.293 78.1245 117.887C78.4892 117.482 78.8568 117.049 79.2215 116.59C79.2514 116.62 79.2663 116.674 79.2663 116.752C79.2663 116.86 79.2305 116.962 79.1617 117.061C79.093 117.16 79.0272 117.247 78.9674 117.325C78.815 117.524 78.6117 117.773 78.3607 118.073C78.1096 118.374 77.8525 118.662 77.5955 118.947C77.3354 119.23 77.0993 119.458 76.8871 119.626C76.7346 119.734 76.5373 119.848 76.2922 119.972C76.0471 120.095 75.805 120.155 75.5599 120.155C75.2849 120.155 75.0966 120.083 74.989 119.936C74.8814 119.791 74.8276 119.611 74.8276 119.395C74.8276 119.149 74.8725 118.89 74.9651 118.614C75.0578 118.338 75.1594 118.073 75.273 117.821C75.3866 117.569 75.4762 117.383 75.536 117.259C75.811 116.725 76.0621 116.217 76.2922 115.743C76.5194 115.268 76.6808 114.932 76.7735 114.73C76.8183 114.637 76.8422 114.562 76.8422 114.499C76.8422 114.391 76.7585 114.385 76.5911 114.475C76.4238 114.568 76.2205 114.703 75.9844 114.89C75.7482 115.073 75.53 115.253 75.3328 115.43C75.1355 115.607 75.004 115.725 74.9442 115.788C74.3793 116.385 73.8891 117.049 73.4706 117.776C73.0521 118.503 72.6964 119.251 72.4065 120.017C72.2092 120.032 72.009 120.086 71.8117 120.179C71.6144 120.272 71.4769 120.317 71.3992 120.317L71.3932 120.305Z" fill="#FF9D3B"/>
<path d="M78.9375 120.305C78.8777 120.305 78.8777 120.236 78.9375 120.098C79.0152 119.96 79.087 119.806 79.1557 119.638C79.2245 119.47 79.2962 119.287 79.3739 119.089C79.5264 118.722 79.6938 118.308 79.8761 117.848C80.0584 117.389 80.2348 116.941 80.4022 116.506C80.5695 116.07 80.719 115.695 80.8475 115.379C80.9761 115.067 81.0657 114.863 81.1106 114.77C80.8983 114.998 80.6413 115.286 80.3454 115.632C80.0465 115.977 79.7685 116.31 79.5114 116.632C79.2514 116.953 79.0541 117.205 78.9166 117.389C78.8718 117.449 78.8329 117.482 78.803 117.482C78.7731 117.482 78.7582 117.443 78.7582 117.368C78.7582 117.244 78.797 117.13 78.8718 117.022C79.1617 116.656 79.4845 116.241 79.8432 115.782C80.2019 115.322 80.5247 114.899 80.8146 114.508C81.1046 114.118 81.2869 113.862 81.3646 113.739C81.532 113.709 81.7801 113.664 82.1089 113.601C82.4377 113.541 82.6619 113.457 82.7844 113.349C82.8293 113.304 82.8771 113.28 82.9219 113.28C82.9518 113.28 82.9727 113.307 82.9787 113.361C82.9877 113.415 82.9668 113.472 82.9219 113.532C82.8322 113.64 82.6738 113.889 82.4526 114.28C82.2314 114.67 81.9953 115.103 81.7442 115.577C81.4932 116.052 81.26 116.482 81.0478 116.863C81.2301 116.617 81.4274 116.379 81.6426 116.151C81.8548 115.92 82.0611 115.701 82.2613 115.484C82.4437 115.301 82.6948 115.07 83.0146 114.797C83.3344 114.52 83.6692 114.268 84.0219 114.04C84.3716 113.811 84.6765 113.679 84.9365 113.649C84.9963 113.634 85.0531 113.625 85.1069 113.625H85.2324C85.5672 113.625 85.7346 113.748 85.7346 113.992C85.7346 114.175 85.636 114.421 85.4387 114.727C85.3311 114.896 85.1667 115.175 84.9485 115.565C84.7273 115.956 84.5061 116.376 84.2849 116.83C84.0637 117.28 83.8724 117.704 83.714 118.094C83.5526 118.485 83.4749 118.773 83.4749 118.956C83.4749 119.17 83.5825 119.278 83.7947 119.278C84.0548 119.278 84.3387 119.149 84.6526 118.887C84.9634 118.626 85.3042 118.293 85.6688 117.887C86.0335 117.482 86.4012 117.049 86.7658 116.59C86.7957 116.62 86.8107 116.674 86.8107 116.752C86.8107 116.86 86.7748 116.962 86.706 117.061C86.6373 117.16 86.5715 117.247 86.5118 117.325C86.3593 117.524 86.1561 117.773 85.905 118.073C85.6539 118.374 85.3968 118.662 85.1398 118.947C84.8797 119.23 84.6436 119.458 84.4314 119.626C84.2789 119.734 84.0817 119.848 83.8366 119.972C83.5915 120.095 83.3493 120.155 83.1042 120.155C82.8293 120.155 82.6409 120.083 82.5333 119.936C82.4257 119.791 82.3719 119.611 82.3719 119.395C82.3719 119.149 82.4168 118.89 82.5094 118.614C82.6021 118.338 82.7037 118.073 82.8173 117.821C82.9309 117.569 83.0206 117.383 83.0803 117.259C83.3553 116.725 83.6064 116.217 83.8366 115.743C84.0637 115.268 84.2251 114.932 84.3178 114.73C84.3626 114.637 84.3865 114.562 84.3865 114.499C84.3865 114.391 84.3029 114.385 84.1355 114.475C83.9681 114.568 83.7648 114.703 83.5287 114.89C83.2926 115.073 83.0744 115.253 82.8771 115.43C82.6798 115.607 82.5483 115.725 82.4885 115.788C81.9236 116.385 81.4334 117.049 81.0149 117.776C80.5964 118.503 80.2407 119.251 79.9508 120.017C79.7535 120.032 79.5533 120.086 79.356 120.179C79.1587 120.272 79.0212 120.317 78.9435 120.317L78.9375 120.305Z" fill="#FF9D3B"/>
<path d="M87.1215 120.029C86.9691 120.029 86.8436 119.999 86.7449 119.936C86.6463 119.872 86.5955 119.758 86.5955 119.59C86.5955 119.377 86.6523 119.125 86.7659 118.833C86.8794 118.542 87.0109 118.251 87.1544 117.959C87.2979 117.668 87.4085 117.431 87.4862 117.247C87.5938 117.034 87.7253 116.755 87.8867 116.409C88.0481 116.064 88.1976 115.737 88.3441 115.421C88.4875 115.109 88.5922 114.89 88.6519 114.766C88.4397 114.995 88.1827 115.283 87.8867 115.628C87.5908 115.974 87.3099 116.307 87.0528 116.629C86.7927 116.95 86.5955 117.202 86.458 117.386C86.4131 117.446 86.3743 117.479 86.3444 117.479C86.3145 117.479 86.2996 117.44 86.2996 117.365C86.2996 117.241 86.3384 117.127 86.4131 117.019C86.7031 116.653 87.0259 116.238 87.3846 115.779C87.7433 115.319 88.0661 114.896 88.356 114.505C88.646 114.115 88.8283 113.859 88.906 113.736C89.0734 113.706 89.3215 113.661 89.6473 113.598C89.9761 113.538 90.2003 113.454 90.3228 113.346C90.3676 113.301 90.4125 113.277 90.4603 113.277C90.4902 113.277 90.5081 113.304 90.5171 113.358C90.5231 113.412 90.5051 113.469 90.4603 113.529C90.3676 113.637 90.2092 113.895 89.9791 114.31C89.7519 114.724 89.5098 115.178 89.2587 115.677C89.0076 116.175 88.7745 116.623 88.5623 117.019C88.35 117.434 88.1647 117.83 88.0123 118.215C87.8598 118.599 87.7851 118.872 87.7851 119.04C87.7851 119.254 87.8927 119.362 88.1049 119.362C88.3022 119.362 88.5593 119.239 88.8701 118.995C89.181 118.752 89.4978 118.455 89.8177 118.112C90.1375 117.77 90.4185 117.449 90.6636 117.16C90.7383 117.067 90.8339 116.956 90.9505 116.827C91.0641 116.698 91.1358 116.617 91.1687 116.587C91.1986 116.617 91.2135 116.671 91.2135 116.749C91.1986 116.857 91.1597 116.959 91.1 117.058C91.0402 117.157 90.9774 117.244 90.9176 117.322C90.5978 117.722 90.2481 118.13 89.8655 118.551C89.4829 118.971 89.0644 119.326 88.6071 119.608C88.1498 119.89 87.6536 120.035 87.1215 120.035V120.029ZM91.1 111.183C90.8877 111.183 90.7353 111.114 90.6426 110.976C90.5799 110.901 90.55 110.799 90.55 110.679C90.55 110.432 90.6636 110.234 90.8937 110.081C91.0611 109.988 91.2135 109.943 91.351 109.943C91.5812 109.943 91.7396 110.012 91.8323 110.15C91.8921 110.225 91.9249 110.327 91.9249 110.447C91.9249 110.694 91.8024 110.892 91.5603 111.045C91.4228 111.138 91.2703 111.183 91.103 111.183H91.1Z" fill="#FF9D3B"/>
<path d="M92.6094 120.098C92.3972 120.098 92.2119 120.02 92.0624 119.87C91.91 119.716 91.8322 119.449 91.8322 119.065C91.8322 118.728 91.8591 118.329 91.9129 117.869C91.9667 117.41 92.0475 116.938 92.1521 116.458C92.2567 115.977 92.3822 115.551 92.5167 115.181C92.2567 115.566 91.9667 115.959 91.6469 116.364C91.3271 116.77 91.0611 117.112 90.8459 117.386C90.801 117.446 90.7622 117.479 90.7323 117.479C90.7024 117.479 90.6874 117.44 90.6874 117.365C90.6874 117.241 90.7263 117.127 90.801 117.019C91.1209 116.575 91.4825 116.07 91.886 115.502C92.2896 114.935 92.6363 114.421 92.9262 113.965C93.0936 113.935 93.2939 113.89 93.533 113.827C93.7691 113.766 93.9425 113.682 94.0471 113.574C94.1219 113.529 94.1697 113.505 94.1846 113.505C94.2295 113.505 94.2534 113.532 94.2534 113.586C94.2534 113.64 94.2295 113.697 94.1846 113.757C94.0471 113.956 93.8977 114.262 93.7392 114.676C93.5808 115.091 93.4194 115.551 93.258 116.055C93.0966 116.56 92.9681 117.055 92.8694 117.536C92.7708 118.019 92.72 118.428 92.72 118.764C92.72 119.011 92.7588 119.182 92.8336 119.281C92.9083 119.38 93.0099 119.431 93.1295 119.431C93.2969 119.431 93.5001 119.347 93.7363 119.179C93.9724 119.011 94.1727 118.833 94.343 118.65C94.5553 118.419 94.7974 118.115 95.0634 117.731C95.3294 117.35 95.5805 116.941 95.8196 116.515C96.0558 116.085 96.2351 115.695 96.3576 115.343C96.4473 115.1 96.5101 114.887 96.54 114.713C96.5699 114.538 96.5848 114.394 96.5848 114.286C96.5848 114.103 96.5609 113.974 96.5161 113.896C96.4712 113.82 96.4324 113.772 96.4025 113.757C96.3098 113.727 96.265 113.688 96.265 113.643C96.265 113.613 96.2949 113.586 96.3576 113.562C96.4174 113.538 96.4802 113.544 96.54 113.574C96.7373 113.634 96.9375 113.724 97.1348 113.839C97.3321 113.953 97.4307 114.172 97.4307 114.493C97.4307 114.571 97.4217 114.658 97.4068 114.758C97.3919 114.857 97.362 114.968 97.3171 115.091C97.2245 115.337 97.0392 115.68 96.7552 116.124C96.4742 116.569 96.1484 117.034 95.7838 117.527C95.4191 118.016 95.0514 118.461 94.6868 118.86C94.3221 119.26 94.0023 119.542 93.7273 119.71C93.545 119.818 93.3537 119.909 93.1564 119.987C92.9591 120.062 92.7738 120.101 92.6064 120.101L92.6094 120.098Z" fill="#FF9D3B"/>
<path d="M98.7578 120.143C98.1331 120.143 97.6997 120.02 97.4546 119.776C97.2095 119.533 97.09 119.233 97.09 118.881C97.09 118.437 97.2065 117.962 97.4457 117.458C97.6848 116.953 97.906 116.524 98.1212 116.172C98.3663 115.806 98.6921 115.421 99.1046 115.025C99.5171 114.625 99.9654 114.289 100.453 114.013C100.94 113.736 101.412 113.598 101.869 113.598C102.264 113.598 102.539 113.694 102.691 113.886C102.844 114.079 102.919 114.304 102.919 114.565C102.919 115.04 102.778 115.43 102.497 115.737C102.213 116.043 101.869 116.292 101.457 116.484C101.044 116.677 100.65 116.833 100.267 116.956C100.037 117.016 99.7711 117.079 99.4662 117.139C99.1614 117.202 98.8714 117.232 98.5964 117.232C98.4888 117.509 98.4051 117.776 98.3454 118.037C98.2826 118.299 98.2527 118.536 98.2527 118.749C98.2527 119.01 98.3185 119.224 98.447 119.392C98.5755 119.56 98.7937 119.644 99.0986 119.644C99.2212 119.644 99.3646 119.629 99.532 119.599C99.6994 119.569 99.8817 119.524 100.082 119.461C100.539 119.308 100.988 119.062 101.43 118.725C101.872 118.389 102.279 118.025 102.653 117.635C103.026 117.244 103.313 116.92 103.51 116.659C103.555 116.704 103.579 116.758 103.579 116.821C103.579 116.899 103.525 117.019 103.418 117.187C103.113 117.617 102.715 118.061 102.228 118.521C101.741 118.98 101.2 119.368 100.605 119.68C100.01 119.993 99.3945 120.152 98.7519 120.152L98.7578 120.143ZM98.7818 116.767C98.979 116.782 99.2062 116.779 99.4573 116.755C99.7084 116.731 99.9565 116.683 100.202 116.605C100.826 116.421 101.281 116.127 101.562 115.722C101.843 115.316 101.986 114.953 101.986 114.631C101.986 114.448 101.947 114.295 101.872 114.172C101.795 114.049 101.675 113.989 101.508 113.989C101.065 113.989 100.671 114.154 100.318 114.481C99.9684 114.812 99.6635 115.19 99.4035 115.62C99.1434 116.049 98.9402 116.43 98.7877 116.767H98.7818Z" fill="#FF9D3B"/>
<path d="M103.286 120.281C103.223 120.281 103.223 120.218 103.286 120.098C103.361 119.96 103.436 119.806 103.504 119.638C103.573 119.47 103.645 119.287 103.723 119.089C103.875 118.722 104.043 118.308 104.225 117.848C104.407 117.389 104.584 116.941 104.751 116.506C104.918 116.07 105.068 115.695 105.196 115.379C105.325 115.067 105.414 114.863 105.459 114.77C105.247 114.998 104.99 115.286 104.694 115.632C104.398 115.977 104.117 116.31 103.86 116.632C103.6 116.953 103.403 117.205 103.265 117.389C103.221 117.449 103.182 117.482 103.152 117.482C103.122 117.482 103.107 117.443 103.107 117.368C103.107 117.244 103.146 117.13 103.221 117.022C103.51 116.656 103.833 116.241 104.192 115.782C104.551 115.322 104.873 114.899 105.163 114.508C105.453 114.118 105.636 113.862 105.713 113.739C105.881 113.709 106.129 113.664 106.455 113.601C106.783 113.541 107.008 113.457 107.13 113.349C107.175 113.304 107.22 113.28 107.268 113.28C107.298 113.28 107.315 113.307 107.324 113.361C107.33 113.415 107.313 113.472 107.268 113.532C107.175 113.625 107.043 113.823 106.867 114.13C106.691 114.436 106.496 114.788 106.284 115.187C106.072 115.586 105.866 115.968 105.666 116.334C105.818 116.106 106.021 115.833 106.272 115.52C106.523 115.208 106.801 114.899 107.106 114.601C107.411 114.304 107.719 114.055 108.033 113.853C108.344 113.655 108.64 113.556 108.912 113.556C109.109 113.556 109.276 113.598 109.414 113.682C109.551 113.766 109.656 113.917 109.734 114.13C109.778 114.238 109.802 114.358 109.802 114.496C109.802 114.758 109.737 115.007 109.608 115.244C109.48 115.481 109.384 115.662 109.321 115.785C109.306 115.83 109.252 115.872 109.16 115.911C109.067 115.95 109.031 115.938 109.046 115.878C109.061 115.803 109.073 115.725 109.082 115.647C109.091 115.571 109.094 115.484 109.094 115.394C109.094 115.133 109.043 114.896 108.945 114.682C108.846 114.469 108.667 114.361 108.406 114.361C108.161 114.361 107.865 114.514 107.516 114.821C107.166 115.127 106.813 115.478 106.464 115.878C106.021 116.397 105.672 116.893 105.411 117.359C105.151 117.827 104.939 118.281 104.772 118.725C104.682 118.971 104.589 119.212 104.497 119.449C104.407 119.686 104.335 119.875 104.291 120.011C104.093 120.026 103.893 120.077 103.696 120.161C103.498 120.245 103.361 120.287 103.283 120.287L103.286 120.281Z" fill="#FF9D3B"/>
<path d="M110.738 120.329C110.463 120.329 110.173 120.29 109.868 120.215C109.563 120.137 109.291 120.011 109.058 119.837C108.822 119.662 108.667 119.419 108.589 119.113C108.574 119.068 108.565 118.999 108.565 118.906C108.565 118.692 108.613 118.455 108.714 118.194C108.813 117.932 108.939 117.749 109.091 117.641C109.151 117.611 109.202 117.611 109.24 117.641C109.279 117.671 109.282 117.704 109.252 117.734C109.237 117.779 109.214 117.836 109.184 117.905C109.154 117.974 109.13 118.047 109.115 118.125C109.07 118.524 109.154 118.875 109.366 119.182C109.459 119.305 109.569 119.419 109.698 119.527C109.826 119.635 109.952 119.725 110.074 119.804C110.182 119.864 110.311 119.906 110.463 119.93C110.615 119.954 110.768 119.963 110.92 119.963C111.162 119.963 111.402 119.933 111.629 119.87C111.859 119.81 112.026 119.707 112.131 119.572C112.328 119.326 112.427 119.053 112.427 118.746C112.427 118.518 112.364 118.272 112.244 118.01C112.122 117.749 111.931 117.476 111.674 117.185C111.506 117.001 111.345 116.803 111.192 116.587C111.04 116.371 110.941 116.142 110.896 115.899C110.881 115.854 110.869 115.806 110.861 115.761C110.852 115.716 110.849 115.668 110.849 115.623C110.651 115.914 110.448 116.184 110.242 116.44C110.036 116.692 109.856 116.911 109.704 117.094C109.641 117.188 109.59 117.233 109.542 117.233C109.512 117.233 109.497 117.203 109.497 117.139C109.497 117.001 109.557 116.857 109.68 116.704C109.802 116.566 109.94 116.395 110.092 116.187C110.245 115.98 110.367 115.815 110.457 115.695C110.717 115.313 110.911 115.01 111.04 114.788C111.168 114.565 111.309 114.361 111.461 114.178C111.629 113.98 111.838 113.818 112.089 113.694C112.34 113.571 112.603 113.511 112.878 113.511C113.198 113.511 113.491 113.562 113.76 113.661C114.026 113.761 114.166 114.01 114.181 114.409C114.181 114.592 114.145 114.782 114.08 114.971C114.011 115.163 113.939 115.343 113.861 115.512C113.817 115.605 113.751 115.668 113.667 115.707C113.584 115.746 113.542 115.734 113.542 115.674C113.542 115.614 113.551 115.545 113.566 115.467C113.581 115.391 113.589 115.322 113.589 115.259C113.589 114.998 113.545 114.77 113.452 114.571C113.374 114.358 113.261 114.199 113.108 114.1C112.956 114.001 112.794 113.95 112.627 113.95C112.382 113.95 112.146 114.046 111.919 114.238C111.691 114.43 111.575 114.68 111.575 114.986V115.1C111.575 115.145 111.584 115.184 111.599 115.214C111.659 115.461 111.841 115.734 112.149 116.04C112.454 116.347 112.69 116.614 112.857 116.845C113.147 117.245 113.291 117.65 113.291 118.062C113.291 118.473 113.171 118.854 112.935 119.2C112.699 119.545 112.385 119.822 111.996 120.026C111.608 120.233 111.186 120.335 110.729 120.335L110.738 120.329Z" fill="#FF9D3B"/>
<path d="M117.78 120.029C117.628 120.029 117.499 119.999 117.392 119.936C117.284 119.872 117.23 119.758 117.23 119.59C117.23 119.377 117.284 119.131 117.392 118.854C117.499 118.578 117.622 118.308 117.756 118.037C117.894 117.77 118.016 117.551 118.121 117.383C117.586 117.95 117.03 118.485 116.453 118.989C116.163 119.236 115.843 119.464 115.493 119.677C115.144 119.89 114.77 119.999 114.373 119.999C114.22 119.999 114.113 119.948 114.053 119.848C113.99 119.749 113.96 119.629 113.96 119.491C113.96 119.416 113.969 119.362 113.984 119.329C114.062 118.731 114.25 118.112 114.555 117.467C114.86 116.821 115.233 116.217 115.676 115.653C116.118 115.085 116.567 114.625 117.024 114.274C117.541 113.874 118.112 113.676 118.74 113.676H121.367C121.445 113.676 121.481 113.706 121.481 113.769C121.481 113.893 121.412 113.953 121.274 113.953C121.122 113.953 120.969 114.049 120.817 114.241C120.665 114.433 120.551 114.589 120.473 114.712C120.366 114.881 120.198 115.163 119.971 115.562C119.741 115.962 119.511 116.394 119.275 116.86C119.038 117.329 118.835 117.761 118.668 118.157C118.5 118.557 118.417 118.845 118.417 119.031C118.417 119.245 118.524 119.353 118.737 119.353C118.964 119.353 119.224 119.245 119.514 119.031C119.804 118.818 120.097 118.554 120.396 118.239C120.691 117.926 120.966 117.611 121.218 117.295C121.469 116.983 121.672 116.734 121.824 116.548C121.914 116.641 121.911 116.767 121.812 116.926C121.714 117.088 121.627 117.214 121.549 117.304C121.244 117.704 120.895 118.112 120.497 118.533C120.1 118.953 119.669 119.308 119.206 119.59C118.74 119.872 118.264 120.017 117.777 120.017L117.78 120.029ZM115.311 119.224C115.493 119.224 115.748 119.089 116.076 118.821C116.405 118.554 116.758 118.218 117.14 117.809C117.52 117.404 117.879 116.974 118.214 116.524C118.548 116.073 118.826 115.659 119.047 115.283C119.269 114.908 119.379 114.622 119.379 114.421C119.379 114.253 119.328 114.139 119.23 114.076C119.131 114.016 119.006 113.983 118.853 113.983C118.608 113.983 118.345 114.07 118.064 114.247C117.78 114.424 117.556 114.595 117.389 114.764C117.206 114.932 116.988 115.196 116.737 115.556C116.486 115.917 116.238 116.31 115.996 116.74C115.751 117.169 115.544 117.581 115.377 117.98C115.21 118.38 115.126 118.701 115.126 118.944C115.126 119.128 115.186 119.221 115.308 119.221L115.311 119.224Z" fill="#FF9D3B"/>
<path d="M121.528 120.281C121.469 120.281 121.469 120.218 121.528 120.098C121.606 119.96 121.678 119.806 121.747 119.638C121.815 119.47 121.887 119.287 121.965 119.089C122.117 118.722 122.285 118.308 122.467 117.848C122.649 117.389 122.826 116.941 122.993 116.506C123.16 116.07 123.31 115.695 123.438 115.379C123.567 115.067 123.657 114.863 123.701 114.77C123.489 114.998 123.232 115.286 122.936 115.632C122.637 115.977 122.359 116.31 122.102 116.632C121.842 116.953 121.645 117.205 121.507 117.389C121.463 117.449 121.424 117.482 121.394 117.482C121.364 117.482 121.349 117.443 121.349 117.368C121.349 117.244 121.388 117.13 121.463 117.022C121.753 116.656 122.075 116.241 122.434 115.782C122.793 115.322 123.116 114.899 123.405 114.508C123.695 114.118 123.878 113.862 123.955 113.739C124.123 113.709 124.371 113.664 124.7 113.601C125.029 113.541 125.253 113.457 125.375 113.349C125.42 113.304 125.468 113.28 125.513 113.28C125.543 113.28 125.564 113.307 125.57 113.361C125.579 113.415 125.558 113.472 125.513 113.532C125.423 113.625 125.289 113.823 125.112 114.13C124.936 114.436 124.742 114.788 124.529 115.187C124.317 115.586 124.111 115.968 123.914 116.334C124.066 116.106 124.269 115.833 124.52 115.52C124.771 115.208 125.049 114.899 125.354 114.601C125.659 114.304 125.967 114.055 126.281 113.853C126.592 113.655 126.888 113.556 127.163 113.556C127.36 113.556 127.527 113.598 127.665 113.682C127.802 113.766 127.91 113.917 127.985 114.13C128.03 114.238 128.053 114.358 128.053 114.496C128.053 114.758 127.988 115.007 127.859 115.244C127.731 115.481 127.635 115.662 127.572 115.785C127.557 115.83 127.503 115.872 127.411 115.911C127.318 115.95 127.279 115.938 127.297 115.878C127.312 115.803 127.324 115.725 127.33 115.647C127.339 115.571 127.342 115.484 127.342 115.394C127.342 115.133 127.291 114.896 127.193 114.682C127.094 114.469 126.915 114.361 126.655 114.361C126.409 114.361 126.114 114.514 125.764 114.821C125.414 115.127 125.061 115.478 124.712 115.878C124.269 116.397 123.92 116.893 123.66 117.359C123.4 117.827 123.187 118.281 123.02 118.725C122.927 118.971 122.838 119.212 122.745 119.449C122.652 119.686 122.583 119.875 122.539 120.011C122.341 120.026 122.141 120.077 121.944 120.161C121.747 120.245 121.609 120.287 121.531 120.287L121.528 120.281Z" fill="#FF9D3B"/>
<path d="M125.256 128C124.676 128 124.117 127.865 123.576 127.598C123.035 127.33 122.634 126.919 122.374 126.369C122.285 126.171 122.222 125.958 122.192 125.738C122.162 125.516 122.147 125.297 122.147 125.084V124.831C122.147 124.708 122.162 124.597 122.192 124.498C122.222 124.399 122.3 124.348 122.422 124.348C122.452 124.348 122.467 124.363 122.467 124.393C122.467 124.486 122.458 124.576 122.443 124.669C122.428 124.762 122.419 124.861 122.419 124.967C122.419 125.669 122.643 126.207 123.095 126.573C123.546 126.94 124.105 127.123 124.774 127.123C125.049 127.123 125.33 127.093 125.62 127.03C125.91 126.97 126.185 126.883 126.442 126.778C127.402 126.363 128.236 125.777 128.947 125.021C129.659 124.264 130.277 123.408 130.809 122.459C131.341 121.509 131.823 120.542 132.25 119.563C132.492 118.981 132.71 118.413 132.902 117.863C133.093 117.311 133.263 116.815 133.416 116.37C133.263 116.584 133.066 116.845 132.821 117.151C132.576 117.458 132.334 117.752 132.089 118.034C131.844 118.317 131.631 118.545 131.449 118.713C131.066 119.08 130.66 119.392 130.226 119.644C129.793 119.897 129.345 120.023 128.89 120.023C128.738 120.023 128.609 119.993 128.502 119.93C128.394 119.87 128.34 119.752 128.34 119.584C128.34 119.371 128.397 119.119 128.511 118.827C128.624 118.536 128.75 118.245 128.887 117.953C129.025 117.662 129.138 117.425 129.231 117.242C129.413 116.89 129.59 116.539 129.757 116.184C129.925 115.833 130.068 115.533 130.191 115.289C130.313 115.058 130.373 114.908 130.373 114.83C130.373 114.707 130.286 114.707 130.11 114.83C129.934 114.953 129.772 115.076 129.62 115.196C129.285 115.518 128.935 115.896 128.568 116.334C128.2 116.773 127.919 117.118 127.722 117.38C127.677 117.44 127.638 117.473 127.608 117.473C127.578 117.473 127.563 117.434 127.563 117.359C127.563 117.235 127.602 117.121 127.677 117.013C127.889 116.707 128.14 116.37 128.43 116.001C128.72 115.635 129.016 115.28 129.321 114.944C129.611 114.637 129.907 114.34 130.212 114.049C130.516 113.757 130.905 113.613 131.377 113.613C131.697 113.613 131.858 113.736 131.858 113.98C131.858 114.193 131.769 114.439 131.583 114.716C131.476 114.884 131.309 115.166 131.081 115.566C130.851 115.965 130.621 116.398 130.385 116.863C130.149 117.332 129.945 117.764 129.778 118.161C129.611 118.56 129.527 118.848 129.527 119.035C129.527 119.248 129.635 119.356 129.847 119.356C130.014 119.356 130.22 119.269 130.463 119.092C130.708 118.914 130.959 118.704 131.219 118.461C131.661 118.031 132.068 117.557 132.441 117.037C132.815 116.518 133.138 116.019 133.413 115.545C133.458 115.469 133.538 115.331 133.652 115.13C133.765 114.932 133.888 114.74 134.017 114.556C134.145 114.373 134.25 114.265 134.324 114.235C134.399 114.205 134.552 114.121 134.782 113.983C135.009 113.845 135.239 113.754 135.466 113.706C135.678 113.661 135.84 113.637 135.947 113.637C136.115 113.637 136.199 113.682 136.199 113.775C136.199 113.899 136.13 113.959 135.992 113.959C135.825 113.959 135.673 114.001 135.535 114.085C135.398 114.169 135.29 114.271 135.215 114.394C135.078 114.592 134.883 114.953 134.632 115.472C134.381 115.992 134.106 116.596 133.81 117.275C133.514 117.956 133.219 118.644 132.932 119.341C132.642 120.038 132.376 120.678 132.13 121.26C131.766 122.134 131.344 122.987 130.872 123.822C130.4 124.657 129.847 125.408 129.216 126.075C128.582 126.742 127.832 127.264 126.965 127.649C126.448 127.877 125.874 127.994 125.25 127.994L125.256 128Z" fill="#FF9D3B"/>
<path d="M0 114.409C11.3165 114.196 24.0139 114.193 35.3305 114.409C24.0139 114.625 11.3165 114.622 0 114.409Z" fill="#FF9D3B"/>
<path d="M144.67 114.409C155.986 114.196 168.684 114.193 180 114.409C168.684 114.625 155.986 114.622 144.67 114.409Z" fill="#FF9D3B"/>
<path d="M110.553 10.3471C104.646 10.7105 98.7399 11.0739 92.8366 11.4374C92.8426 11.3893 92.8485 11.3383 92.8515 11.2872C92.8754 10.9418 92.8127 10.6384 92.732 10.3982C93.258 10.2059 94.0202 9.93863 94.9498 9.65029C96.6536 9.12468 97.6131 8.94146 97.6011 8.86638C97.5892 8.79129 96.6237 8.83935 92.4331 9.39199C92.3075 9.0586 91.9548 8.26568 91.1089 7.63494C90.3288 7.05227 89.5427 6.91711 89.19 6.88107C89.0106 2.1836 88.8642 0.0871582 88.7506 0.0871582C88.637 0.0871582 88.5413 2.1866 88.4756 6.88107C88.1557 6.89909 87.265 6.98919 86.4191 7.66198C85.636 8.2837 85.3341 9.0556 85.2325 9.36796C81.4185 8.85136 79.4965 8.68617 79.4606 8.86938C79.4248 9.0586 81.3258 9.60524 85.1637 10.5123C85.1249 10.6204 85.074 10.8036 85.083 11.0349C85.092 11.2662 85.1577 11.4434 85.2026 11.5485C79.096 11.149 72.9894 10.7466 66.8798 10.3471L73.5005 11.4734C73.4855 11.5215 73.4766 11.5725 73.4766 11.6266C73.4766 11.9269 73.7187 12.1702 74.0176 12.1702C74.3165 12.1702 74.5437 11.939 74.5556 11.6506L77.0784 12.0801C77.0724 12.1102 77.0694 12.1372 77.0694 12.1702C77.0694 12.4706 77.3115 12.7139 77.6104 12.7139C77.8764 12.7139 78.0976 12.5186 78.1425 12.2633L85.5553 13.5248C85.5553 13.5248 86.6254 15.2278 88.897 15.2278C91.1687 15.2278 92.0594 13.5699 92.0594 13.5699L97.1438 12.6838L98.0674 12.5216L99.7413 12.2303C99.7712 12.5006 99.9983 12.7139 100.276 12.7139C100.575 12.7139 100.817 12.4706 100.817 12.1702C100.817 12.1282 100.811 12.0861 100.802 12.0471L103.331 11.6056C103.331 11.6056 103.331 11.6206 103.331 11.6266C103.331 11.9269 103.573 12.1702 103.872 12.1702C104.171 12.1702 104.413 11.9269 104.413 11.6266C104.413 11.5545 104.398 11.4854 104.374 11.4224L110.562 10.3441L110.553 10.3471Z" stroke="#FFC28A" stroke-width="0.58" stroke-miterlimit="10"/>
<path d="M78.6834 31.9512L79.1199 31.1462L79.5562 31.9512L80.3573 32.3897L79.5562 32.8312L79.1199 33.6331L78.6834 32.8312L77.8824 32.3897L78.6834 31.9512Z" fill="#FFC28A"/>
<path d="M88.2783 31.9512L88.7177 31.1462L89.1541 31.9512L89.9551 32.3897L89.1541 32.8312L88.7177 33.6331L88.2783 32.8312L87.4802 32.3897L88.2783 31.9512Z" fill="#FFC28A"/>
<path d="M69.0857 31.9512L69.5221 31.1462L69.9585 31.9512L70.7595 32.3897L69.9585 32.8312L69.5221 33.6331L69.0857 32.8312L68.2846 32.3897L69.0857 31.9512Z" fill="#FFC28A"/>
<path d="M59.4878 31.9512L59.9242 31.1462L60.3606 31.9512L61.1617 32.3897L60.3606 32.8312L59.9242 33.6331L59.4878 32.8312L58.6868 32.3897L59.4878 31.9512Z" fill="#FFC28A"/>
<path d="M49.8901 31.9512L50.3265 31.1462L50.7629 31.9512L51.5639 32.3897L50.7629 32.8312L50.3265 33.6331L49.8901 32.8312L49.089 32.3897L49.8901 31.9512Z" fill="#FFC28A"/>
<path d="M97.8761 31.9512L98.3155 31.1462L98.7519 31.9512L99.553 32.3897L98.7519 32.8312L98.3155 33.6331L97.8761 32.8312L97.078 32.3897L97.8761 31.9512Z" fill="#FFC28A"/>
<path d="M107.474 31.9512L107.913 31.1462L108.35 31.9512L109.151 32.3897L108.35 32.8312L107.913 33.6331L107.474 32.8312L106.676 32.3897L107.474 31.9512Z" fill="#FFC28A"/>
<path d="M117.072 31.9512L117.511 31.1462L117.948 31.9512L118.749 32.3897L117.948 32.8312L117.511 33.6331L117.072 32.8312L116.274 32.3897L117.072 31.9512Z" fill="#FFC28A"/>
<path d="M126.67 31.9512L127.109 31.1462L127.545 31.9512L128.346 32.3897L127.545 32.8312L127.109 33.6331L126.67 32.8312L125.871 32.3897L126.67 31.9512Z" fill="#FFC28A"/>
<path d="M87.827 22.8806L88.7177 21.2437L89.6084 22.8806L91.2345 23.7726L89.6084 24.6676L88.7177 26.3045L87.827 24.6676L86.1979 23.7726L87.827 22.8806Z" fill="#FFC28A"/>
</g>
<defs>
<clipPath id="clip0_19_60">
<rect width="180" height="128" fill="white"/>
</clipPath>
</defs>
</svg>
